# xmcd CD database file
#
# Track frame offsets:
#	150
#	15677
#	32103
#	47676
#	58842
#	80511
#	89700
#	112578
#	129270
#	147080
#	166466
#	189927
#
# Disc length: 3078 seconds
#
# Revision: 2
# Processed by: cddbd v1.5.2PL0 Copyright (c) Steve Scherf et al.
# Submitted via: CDex 1.70beta2
#
DISCID=970c040c
DTITLE=Gurt "Djazova Fira" - Dodomu na svyata
DYEAR=2009
DGENRE=Jazz
TTITLE0=Prechysta Diva
TTITLE1=U misti Vyfleemi
TTITLE2=Tam za gorou
TTITLE3=Bidnyy Ya
TTITLE4=Svyata Nich
TTITLE5=Ganusya
TTITLE6=Gospodarenku
TTITLE7=Krasnaya panna
TTITLE8=Na svyat-vechir
TTITLE9=V Vyfleemi dnes Mariya
TTITLE10=Yalynochka
TTITLE11=Na gori korchma
EXTD=YEAR: 2009
EXTT0=
EXTT1=
EXTT2=
EXTT3=
EXTT4=
EXTT5=
EXTT6=
EXTT7=
EXTT8=
EXTT9=
EXTT10=
EXTT11=
PLAYORDER=
